<svg width="135" height="28" viewBox="0 0 135 28" fill="none" xmlns="http://www.w3.org/2000/svg">
<path d="M5.348 26.988L0.56 26.092C1.456 22.4707 2.38933 19.1947 3.36 16.264C4.34933 13.3333 5.36667 10.8227 6.412 8.732C7.45733 6.64133 8.52133 5.036 9.604 3.916C10.7053 2.77733 11.8067 2.208 12.908 2.208C15.1293 2.208 17.1733 4.27067 19.04 8.396C20.9067 12.5027 22.4933 18.4573 23.8 26.26L18.844 26.932C18.62 25.7 18.3773 24.44 18.116 23.152C17.8547 21.8453 17.584 20.576 17.304 19.344C16.856 19.3253 16.3707 19.316 15.848 19.316C14.9333 19.316 13.9627 19.3347 12.936 19.372C11.928 19.4093 10.9293 19.4747 9.94 19.568C8.96933 19.6427 8.064 19.7267 7.224 19.82C6.86933 21.0147 6.524 22.228 6.188 23.46C5.87067 24.6733 5.59067 25.8493 5.348 26.988ZM10.5 10.636C10.0893 11.5133 9.53867 12.932 8.848 14.892C9.65067 14.7987 10.5 14.7333 11.396 14.696C12.292 14.64 13.1693 14.612 14.028 14.612C14.756 14.612 15.456 14.6307 16.128 14.668C15.8667 13.716 15.6147 12.8667 15.372 12.12C15.148 11.3733 14.9427 10.7853 14.756 10.356C14.364 9.348 14.0187 8.63867 13.72 8.228C13.4213 7.79867 13.1133 7.584 12.796 7.584C12.46 7.584 12.124 7.808 11.788 8.256C11.452 8.68533 11.0227 9.47867 10.5 10.636ZM29.6006 27.016C29.5819 25.9707 29.5726 24.9067 29.5726 23.824C29.5726 22.7227 29.5726 21.6587 29.5726 20.632V13.996C28.7886 14.052 28.0326 14.136 27.3046 14.248C26.5953 14.36 25.9326 14.5 25.3166 14.668L24.7286 10.188C25.4006 10.0387 26.1659 9.908 27.0246 9.796C27.9019 9.684 28.8073 9.6 29.7406 9.544C29.8526 8.51733 30.0393 7.51867 30.3006 6.548C30.5806 5.57733 30.9726 4.70933 31.4766 3.944C31.9806 3.16 32.6433 2.53467 33.4646 2.068C34.2859 1.60133 35.3033 1.368 36.5166 1.368C38.0659 1.368 39.5593 1.68533 40.9966 2.32L40.0446 6.772C38.8126 6.212 37.7953 5.932 36.9926 5.932C36.1339 5.932 35.5366 6.24 35.2006 6.856C34.8646 7.45333 34.6499 8.30267 34.5566 9.404C35.5646 9.42267 36.5166 9.46933 37.4126 9.544C38.3273 9.6 39.1206 9.67467 39.7926 9.768L39.3446 14.164C38.6913 14.052 37.9259 13.968 37.0486 13.912C36.1899 13.8373 35.2846 13.8 34.3326 13.8C34.2953 14.752 34.2673 15.6853 34.2486 16.6C34.2299 17.496 34.2206 18.392 34.2206 19.288C34.2206 20.4827 34.2299 21.7147 34.2486 22.984C34.2859 24.2347 34.3233 25.5787 34.3606 27.016H29.6006ZM41.2633 27.184C41.3379 25.6347 41.3939 24.0853 41.4313 22.536C41.4686 20.9867 41.4873 19.456 41.4873 17.944C41.4686 16.5627 41.4406 15.2 41.4033 13.856C41.3846 12.4933 41.3379 11.1773 41.2633 9.908L45.9673 9.768C45.9859 10.4587 46.0139 11.168 46.0513 11.896C46.6486 11.1493 47.3393 10.552 48.1233 10.104C48.9259 9.63733 49.8406 9.404 50.8673 9.404C51.2593 9.404 51.7633 9.46 52.3793 9.572C52.9953 9.684 53.6206 9.89867 54.2553 10.216L53.7233 14.948C53.2566 14.668 52.7526 14.472 52.2113 14.36C51.6886 14.2293 51.2499 14.164 50.8953 14.164C49.7006 14.164 48.6833 14.7053 47.8433 15.788C47.0219 16.852 46.4619 18.336 46.1633 20.24C46.1633 21.5467 46.1446 22.7973 46.1073 23.992C46.0886 25.168 46.0419 26.232 45.9673 27.184H41.2633ZM55.3186 6.912C55.3186 6.744 55.3093 6.576 55.2906 6.408C55.2906 6.22133 55.2906 6.016 55.2906 5.792C55.2906 5.19467 55.3093 4.56 55.3466 3.888C55.3839 3.216 55.4213 2.64667 55.4586 2.18L60.4426 2.264C60.3866 2.89867 60.3213 3.61733 60.2466 4.42C60.1906 5.22267 60.1533 6.05333 60.1346 6.912H55.3186ZM55.2066 26.96C55.1506 25.8027 55.1133 24.5707 55.0946 23.264C55.0759 21.9387 55.0666 20.6133 55.0666 19.288C55.0666 17.552 55.0853 15.8627 55.1226 14.22C55.1599 12.5773 55.2066 11.084 55.2626 9.74L60.0786 9.712C60.0039 10.5707 59.9573 11.6347 59.9386 12.904C59.9199 14.1547 59.9106 15.4707 59.9106 16.852C59.9106 18.2147 59.9199 19.5587 59.9386 20.884C59.9573 22.2093 59.9759 23.4133 59.9946 24.496C60.0319 25.56 60.0599 26.3813 60.0786 26.96H55.2066Z" fill="#202223"/>
<path d="M71.0174 27.268C69.4494 27.268 68.0027 26.9413 66.6774 26.288C65.3521 25.6347 64.2881 24.7013 63.4854 23.488C62.6827 22.256 62.2814 20.7907 62.2814 19.092C62.2814 17.188 62.6547 15.5173 63.4014 14.08C64.1481 12.6427 65.1934 11.532 66.5374 10.748C67.8814 9.94533 69.4494 9.544 71.2414 9.544C72.9587 9.544 74.4147 9.89867 75.6094 10.608C76.8041 11.2987 77.8681 12.4 78.8014 13.912L74.9094 16.6C74.3867 15.76 73.8547 15.1253 73.3134 14.696C72.7721 14.248 72.0347 14.024 71.1014 14.024C69.8321 14.024 68.8054 14.472 68.0214 15.368C67.2374 16.2453 66.8454 17.4213 66.8454 18.896C66.8454 19.7547 67.0507 20.4547 67.4614 20.996C67.8907 21.5373 68.4134 21.9387 69.0294 22.2C69.6454 22.4613 70.2241 22.592 70.7654 22.592C71.3254 22.592 71.8667 22.5267 72.3894 22.396C72.9121 22.2467 73.4067 21.9293 73.8734 21.444C74.3401 20.9587 74.7601 20.2213 75.1334 19.232L79.3334 21.472C78.7734 22.4987 78.1481 23.4507 77.4574 24.328C76.7667 25.2053 75.9081 25.9147 74.8814 26.456C73.8734 26.9973 72.5854 27.268 71.0174 27.268ZM88.2158 27.212C86.8158 27.212 85.5464 26.848 84.4078 26.12C83.2691 25.4107 82.3638 24.4493 81.6917 23.236C81.0384 22.004 80.7118 20.632 80.7118 19.12C80.7118 17.7013 80.9731 16.4227 81.4958 15.284C82.0184 14.1267 82.7278 13.1373 83.6238 12.316C84.5384 11.4947 85.5744 10.8693 86.7318 10.44C87.8891 9.992 89.1024 9.768 90.3718 9.768C91.4358 9.768 92.4811 9.91733 93.5078 10.216C93.5824 9.824 93.6478 9.432 93.7038 9.04L98.4918 9.852C98.3611 10.2067 98.2304 10.7387 98.0998 11.448C97.9691 12.1573 97.8571 12.9507 97.7638 13.828C97.6891 14.7053 97.6238 15.5827 97.5678 16.46C97.5118 17.3373 97.4838 18.1307 97.4838 18.84C97.4838 19.4187 97.5211 19.988 97.5958 20.548C97.6891 21.0893 97.8758 21.5373 98.1558 21.892C98.4358 22.228 98.8651 22.396 99.4438 22.396H99.8358L99.1358 27.268C97.9038 27.268 96.8864 27.0533 96.0838 26.624C95.2811 26.2133 94.6371 25.6533 94.1518 24.944C93.3491 25.84 92.4344 26.4373 91.4078 26.736C90.3811 27.0533 89.3171 27.212 88.2158 27.212ZM85.3038 19.68C85.3971 20.576 85.7611 21.2947 86.3958 21.836C87.0491 22.3587 87.8704 22.62 88.8598 22.62C89.8118 22.62 90.6051 22.368 91.2398 21.864C91.8744 21.3413 92.3971 20.632 92.8078 19.736C92.7891 19.4373 92.7798 19.1293 92.7798 18.812C92.7798 18.1587 92.7984 17.4867 92.8358 16.796C92.8731 16.1053 92.9198 15.424 92.9758 14.752C92.1918 14.4533 91.3704 14.304 90.5118 14.304C89.5038 14.304 88.5984 14.5093 87.7958 14.92C87.0118 15.312 86.3958 15.8627 85.9478 16.572C85.4998 17.2813 85.2758 18.1027 85.2758 19.036C85.2758 19.148 85.2758 19.26 85.2758 19.372C85.2758 19.484 85.2851 19.5867 85.3038 19.68ZM105.534 27.016C105.516 25.9707 105.506 24.9067 105.506 23.824C105.506 22.7227 105.506 21.6587 105.506 20.632V13.996C104.722 14.052 103.966 14.136 103.238 14.248C102.529 14.36 101.866 14.5 101.25 14.668L100.662 10.188C101.334 10.0387 102.1 9.908 102.958 9.796C103.836 9.684 104.741 9.6 105.674 9.544C105.786 8.51733 105.973 7.51867 106.234 6.548C106.514 5.57733 106.906 4.70933 107.41 3.944C107.914 3.16 108.577 2.53467 109.398 2.068C110.22 1.60133 111.237 1.368 112.45 1.368C114 1.368 115.493 1.68533 116.93 2.32L115.978 6.772C114.746 6.212 113.729 5.932 112.926 5.932C112.068 5.932 111.47 6.24 111.134 6.856C110.798 7.45333 110.584 8.30267 110.49 9.404C111.498 9.42267 112.45 9.46933 113.346 9.544C114.261 9.6 115.054 9.67467 115.726 9.768L115.278 14.164C114.625 14.052 113.86 13.968 112.982 13.912C112.124 13.8373 111.218 13.8 110.266 13.8C110.229 14.752 110.201 15.6853 110.182 16.6C110.164 17.496 110.154 18.392 110.154 19.288C110.154 20.4827 110.164 21.7147 110.182 22.984C110.22 24.2347 110.257 25.5787 110.294 27.016H105.534ZM125.765 27.24C123.973 27.24 122.396 26.8853 121.033 26.176C119.689 25.4853 118.634 24.5147 117.869 23.264C117.122 22.0133 116.749 20.5667 116.749 18.924C116.749 17.9347 116.917 16.8987 117.253 15.816C117.589 14.7147 118.13 13.688 118.877 12.736C119.624 11.784 120.604 11.0093 121.817 10.412C123.049 9.81467 124.542 9.516 126.297 9.516C127.566 9.516 128.63 9.656 129.489 9.936C130.366 10.216 131.076 10.58 131.617 11.028C132.177 11.476 132.597 11.952 132.877 12.456C133.176 12.96 133.372 13.4453 133.465 13.912C133.577 14.36 133.633 14.7333 133.633 15.032C133.633 16.8427 132.868 18.2427 131.337 19.232C129.825 20.2027 127.678 20.688 124.897 20.688C124.262 20.688 123.656 20.66 123.077 20.604C122.517 20.548 121.994 20.4827 121.509 20.408C121.864 21.3413 122.452 22.032 123.273 22.48C124.094 22.9093 124.944 23.124 125.821 23.124C127.09 23.124 128.21 22.9 129.181 22.452C130.152 21.9853 131.066 21.276 131.925 20.324L134.417 23.908C133.82 24.3933 133.148 24.8973 132.401 25.42C131.673 25.9427 130.777 26.372 129.713 26.708C128.649 27.0627 127.333 27.24 125.765 27.24ZM126.381 13.716C125.28 13.716 124.309 13.996 123.469 14.556C122.629 15.116 122.013 15.8533 121.621 16.768C122.088 16.8427 122.545 16.908 122.993 16.964C123.46 17.0013 123.917 17.02 124.365 17.02C124.776 17.02 125.242 16.9827 125.765 16.908C126.306 16.8333 126.829 16.7213 127.333 16.572C127.856 16.4227 128.285 16.236 128.621 16.012C128.957 15.7693 129.125 15.4893 129.125 15.172C129.125 15.0227 129.05 14.836 128.901 14.612C128.752 14.388 128.481 14.1827 128.089 13.996C127.697 13.8093 127.128 13.716 126.381 13.716ZM123.245 7.416L121.789 5.316C122.218 4.99867 122.704 4.63467 123.245 4.224C123.786 3.81333 124.328 3.39333 124.869 2.964C125.41 2.516 125.905 2.11467 126.353 1.76C126.82 1.38667 127.184 1.088 127.445 0.863999L129.769 3.58C129.489 3.82267 129.078 4.112 128.537 4.448C128.014 4.76533 127.426 5.11067 126.773 5.484C126.138 5.85733 125.513 6.212 124.897 6.548C124.281 6.86533 123.73 7.15467 123.245 7.416Z" fill="#A77444"/>
</svg>
