<svg width="24" height="24" viewBox="0 0 24 24" fill="none" xmlns="http://www.w3.org/2000/svg">
<mask id="mask0_97_121" style="mask-type:alpha" maskUnits="userSpaceOnUse" x="0" y="0" width="24" height="24">
<rect width="24" height="24" fill="#D9D9D9"/>
</mask>
<g mask="url(#mask0_97_121)">
<path d="M10.45 12.975L11.75 14.275C11.9333 14.4583 12.1667 14.55 12.45 14.55C12.7333 14.55 12.9667 14.4583 13.15 14.275L16 11.425V12.025C16 12.3083 16.0958 12.5417 16.2875 12.725C16.4792 12.9083 16.7167 13 17 13C17.2833 13 17.5208 12.9042 17.7125 12.7125C17.9042 12.5208 18 12.2833 18 12V9C18 8.71667 17.9042 8.47917 17.7125 8.2875C17.5208 8.09583 17.2833 8 17 8H13.975C13.6917 8 13.4583 8.09583 13.275 8.2875C13.0917 8.47917 13 8.71667 13 9C13 9.28333 13.0958 9.52083 13.2875 9.7125C13.4792 9.90417 13.7167 10 14 10H14.575L12.45 12.15L11.15 10.85C10.9667 10.65 10.7333 10.55 10.45 10.55C10.1667 10.55 9.93333 10.65 9.75 10.85L6.7 13.9C6.5 14.0833 6.4 14.3167 6.4 14.6C6.4 14.8833 6.5 15.1167 6.7 15.3C6.88333 15.5 7.11667 15.6 7.4 15.6C7.68333 15.6 7.91667 15.5 8.1 15.3L10.45 12.975ZM5 21C4.45 21 3.97917 20.8042 3.5875 20.4125C3.19583 20.0208 3 19.55 3 19V5C3 4.45 3.19583 3.97917 3.5875 3.5875C3.97917 3.19583 4.45 3 5 3H19C19.55 3 20.0208 3.19583 20.4125 3.5875C20.8042 3.97917 21 4.45 21 5V19C21 19.55 20.8042 20.0208 20.4125 20.4125C20.0208 20.8042 19.55 21 19 21H5ZM5 19H19V5H5V19Z" fill="#555555"/>
</g>
</svg>
