<svg width="20" height="20" viewBox="0 0 20 20" fill="none" xmlns="http://www.w3.org/2000/svg">
<mask id="mask0_157_4214" style="mask-type:alpha" maskUnits="userSpaceOnUse" x="0" y="0" width="20" height="20">
<rect width="20" height="20" fill="#D9D9D9"/>
</mask>
<g mask="url(#mask0_157_4214)">
<path d="M10.001 17.9167C8.90611 17.9167 7.87691 17.7089 6.91347 17.2934C5.95001 16.8778 5.11194 16.3138 4.39926 15.6015C3.68656 14.8891 3.12235 14.0514 2.70661 13.0883C2.29088 12.1253 2.08301 11.0963 2.08301 10.0014C2.08301 8.90645 2.29079 7.87724 2.70634 6.9138C3.1219 5.95034 3.68586 5.11226 4.39822 4.39958C5.11059 3.68688 5.94829 3.12267 6.91132 2.70693C7.87433 2.29119 8.90331 2.08333 9.99826 2.08333C11.0932 2.08333 12.1224 2.2911 13.0858 2.70666C14.0493 3.12222 14.8874 3.68617 15.6001 4.39854C16.3127 5.11091 16.877 5.94862 17.2927 6.91165C17.7084 7.87467 17.9163 8.90366 17.9163 9.9986C17.9163 11.0935 17.7085 12.1228 17.293 13.0862C16.8774 14.0497 16.3135 14.8877 15.6011 15.6004C14.8887 16.3131 14.051 16.8773 13.088 17.2931C12.125 17.7088 11.096 17.9167 10.001 17.9167ZM9.99965 16.6667C11.8608 16.6667 13.4372 16.0209 14.7288 14.7292C16.0205 13.4375 16.6663 11.8611 16.6663 9.99999C16.6663 8.13888 16.0205 6.56248 14.7288 5.27081C13.4372 3.97914 11.8608 3.33331 9.99965 3.33331C8.13854 3.33331 6.56215 3.97914 5.27049 5.27081C3.97882 6.56248 3.33299 8.13888 3.33299 9.99999C3.33299 11.8611 3.97882 13.4375 5.27049 14.7292C6.56215 16.0209 8.13854 16.6667 9.99965 16.6667Z" fill="#F79E1B"/>
<path d="M10.0024 11.8673L11.4815 12.7695C11.6183 12.8561 11.7564 12.8513 11.8958 12.7551C12.0352 12.659 12.0868 12.5286 12.0504 12.3641L11.6578 10.6718L12.9767 9.533C13.106 9.4172 13.1442 9.28184 13.0913 9.12692C13.0384 8.972 12.9254 8.8876 12.7524 8.87371L11.0264 8.72788L10.3453 7.13975C10.2819 6.98912 10.1678 6.9138 10.0029 6.9138C9.83803 6.9138 9.72354 6.98912 9.65945 7.13975L8.97834 8.72788L7.2524 8.87371C7.07932 8.8876 6.96634 8.972 6.91347 9.12692C6.86058 9.28184 6.89879 9.4172 7.02809 9.533L8.34695 10.6718L7.95432 12.3641C7.918 12.5286 7.96955 12.659 8.10897 12.7551C8.24838 12.8513 8.38647 12.8561 8.52322 12.7695L10.0024 11.8673Z" fill="#F79E1B"/>
</g>
</svg>
