<svg width="24" height="18" viewBox="0 0 24 18" fill="none" xmlns="http://www.w3.org/2000/svg">
<g clip-path="url(#clip0_79_720)">
<path d="M6.04694 16.9724V15.8435C6.04694 15.4106 5.78345 15.1284 5.33183 15.1284C5.10605 15.1284 4.86143 15.2037 4.69205 15.4483C4.5604 15.2413 4.37225 15.1284 4.09 15.1284C3.90177 15.1284 3.71371 15.1848 3.56311 15.3918V15.1661H3.16797V16.9724H3.56311V15.9751C3.56311 15.6553 3.73248 15.5047 3.99597 15.5047C4.25928 15.5047 4.39111 15.6741 4.39111 15.9751V16.9724H4.78625V15.9751C4.78625 15.6553 4.97431 15.5047 5.21894 15.5047C5.48243 15.5047 5.61408 15.6741 5.61408 15.9751V16.9724H6.04694ZM11.8987 15.1661H11.2591V14.6204H10.8639V15.1661H10.5064V15.5235H10.8638V16.3515C10.8638 16.7655 11.0332 17.01 11.4848 17.01C11.6542 17.01 11.8423 16.9536 11.9741 16.8784L11.8611 16.5396C11.7482 16.6149 11.6166 16.6338 11.5225 16.6338C11.3343 16.6338 11.2591 16.5209 11.2591 16.3326V15.5235H11.8987V15.1661ZM15.2481 15.1284C15.0223 15.1284 14.8718 15.2413 14.7777 15.3918V15.1661H14.3826V16.9724H14.7777V15.9564C14.7777 15.6553 14.9094 15.486 15.154 15.486C15.2293 15.486 15.3234 15.5048 15.3986 15.5236L15.5115 15.1473C15.4363 15.1284 15.3234 15.1284 15.2481 15.1284V15.1284ZM10.1865 15.3166C9.99828 15.1848 9.73488 15.1284 9.45263 15.1284C9.00108 15.1284 8.70005 15.3542 8.70005 15.7117C8.70005 16.0128 8.92583 16.1821 9.32097 16.2386L9.50911 16.2575C9.71611 16.295 9.829 16.3515 9.829 16.4456C9.829 16.5773 9.67848 16.6714 9.415 16.6714C9.1516 16.6714 8.9446 16.5773 8.81285 16.4832L8.62471 16.7843C8.83171 16.9348 9.11397 17.01 9.39614 17.01C9.92303 17.01 10.2241 16.7655 10.2241 16.4268C10.2241 16.1069 9.97951 15.9375 9.60314 15.8811L9.415 15.8623C9.24563 15.8434 9.11397 15.8058 9.11397 15.693C9.11397 15.5612 9.24563 15.486 9.45263 15.486C9.67848 15.486 9.90425 15.58 10.0171 15.6365L10.1865 15.3166ZM20.6861 15.1284C20.4602 15.1284 20.3097 15.2413 20.2156 15.3918V15.1661H19.8205V16.9724H20.2156V15.9564C20.2156 15.6553 20.3473 15.486 20.5919 15.486C20.6672 15.486 20.7613 15.5048 20.8366 15.5236L20.9495 15.1473C20.8742 15.1284 20.7613 15.1284 20.6861 15.1284ZM15.6433 16.0692C15.6433 16.6149 16.0195 17.01 16.6029 17.01C16.8663 17.01 17.0545 16.9536 17.2426 16.8031L17.0545 16.4832C16.9039 16.5961 16.7534 16.6525 16.5841 16.6525C16.2642 16.6525 16.0384 16.4268 16.0384 16.0692C16.0384 15.7306 16.2642 15.5047 16.5841 15.486C16.7534 15.486 16.9039 15.5424 17.0545 15.6553L17.2426 15.3354C17.0545 15.1848 16.8663 15.1284 16.6029 15.1284C16.0195 15.1284 15.6433 15.5236 15.6433 16.0692ZM19.2937 16.0692V15.1661H18.8985V15.3918C18.7668 15.2226 18.5786 15.1284 18.334 15.1284C17.826 15.1284 17.4308 15.5236 17.4308 16.0692C17.4308 16.6149 17.826 17.01 18.334 17.01C18.5974 17.01 18.7856 16.916 18.8985 16.7466V16.9724H19.2937V16.0692ZM17.8447 16.0692C17.8447 15.7494 18.0517 15.486 18.3904 15.486C18.7103 15.486 18.9361 15.7306 18.9361 16.0692C18.9361 16.3891 18.7103 16.6525 18.3904 16.6525C18.0517 16.6337 17.8447 16.3891 17.8447 16.0692ZM13.1219 15.1284C12.595 15.1284 12.2186 15.5047 12.2186 16.0692C12.2186 16.6338 12.5949 17.01 13.1407 17.01C13.4041 17.01 13.6675 16.9348 13.8745 16.7655L13.6863 16.4832C13.5358 16.5961 13.3477 16.6714 13.1595 16.6714C12.9149 16.6714 12.6703 16.5585 12.6138 16.2385H13.9498V16.0881C13.9687 15.5047 13.63 15.1284 13.1219 15.1284ZM13.1219 15.4671C13.3664 15.4671 13.5359 15.6177 13.5734 15.9H12.6326C12.6703 15.6553 12.8396 15.4671 13.1219 15.4671ZM22.9252 16.0692V14.451H22.5301V15.3918C22.3983 15.2226 22.2102 15.1284 21.9655 15.1284C21.4575 15.1284 21.0624 15.5236 21.0624 16.0692C21.0624 16.6149 21.4575 17.01 21.9655 17.01C22.229 17.01 22.4172 16.916 22.5301 16.7466V16.9724H22.9252V16.0692ZM21.4764 16.0692C21.4764 15.7494 21.6833 15.486 22.022 15.486C22.3419 15.486 22.5677 15.7306 22.5677 16.0692C22.5677 16.3891 22.3419 16.6525 22.022 16.6525C21.6833 16.6337 21.4764 16.3891 21.4764 16.0692ZM8.2672 16.0692V15.1661H7.87205V15.3918C7.74031 15.2226 7.55217 15.1284 7.30754 15.1284C6.79951 15.1284 6.40437 15.5236 6.40437 16.0692C6.40437 16.6149 6.79951 17.01 7.30754 17.01C7.57103 17.01 7.75917 16.916 7.87205 16.7466V16.9724H8.2672V16.0692ZM6.79951 16.0692C6.79951 15.7494 7.00651 15.486 7.34517 15.486C7.66505 15.486 7.89091 15.7306 7.89091 16.0692C7.89091 16.3891 7.66505 16.6525 7.34517 16.6525C7.00651 16.6337 6.79951 16.3891 6.79951 16.0692Z" fill="black"/>
<path d="M10.0547 1.44885H15.9818V12.0989H10.0547V1.44885Z" fill="#FF5F00"/>
<path d="M10.431 6.77391C10.431 4.61006 11.447 2.69074 13.0087 1.44883C11.861 0.545657 10.4122 0 8.83162 0C5.08702 0 2.05762 3.0294 2.05762 6.77391C2.05762 10.5183 5.08702 13.5478 8.83153 13.5478C10.4121 13.5478 11.8609 13.0022 13.0087 12.0989C11.447 10.8759 10.431 8.93777 10.431 6.77391Z" fill="#EB001B"/>
<path d="M23.9785 6.77391C23.9785 10.5183 20.9491 13.5478 17.2045 13.5478C15.624 13.5478 14.1751 13.0022 13.0273 12.0989C14.6079 10.8571 15.6052 8.93777 15.6052 6.77391C15.6052 4.61006 14.5891 2.69074 13.0273 1.44883C14.1751 0.545657 15.624 0 17.2045 0C20.9491 0 23.9785 3.04826 23.9785 6.77391Z" fill="#F79E1B"/>
</g>
<mask id="mask0_79_720" style="mask-type:alpha" maskUnits="userSpaceOnUse" x="0" y="0" width="3" height="3">
<rect width="2.05714" height="2.05714" fill="#D9D9D9"/>
</mask>
<g mask="url(#mask0_79_720)">
</g>
<defs>
<clipPath id="clip0_79_720">
<rect width="21.9429" height="17.0571" fill="white" transform="translate(2.05762)"/>
</clipPath>
</defs>
</svg>
