<svg width="24" height="22" viewBox="0 0 24 22" fill="none" xmlns="http://www.w3.org/2000/svg">
<path d="M2.66634 21.3334C2.02467 21.3334 1.47537 21.1049 1.01842 20.648C0.56148 20.191 0.333008 19.6417 0.333008 19V5.00004C0.333008 4.35837 0.56148 3.80907 1.01842 3.35212C1.47537 2.89518 2.02467 2.66671 2.66634 2.66671H14.4497C14.3719 3.0556 14.333 3.44448 14.333 3.83337C14.333 4.22226 14.3719 4.61115 14.4497 5.00004H2.66634V19H21.333V9.55004C21.7802 9.45282 22.1983 9.31671 22.5872 9.14171C22.9761 8.96671 23.3358 8.75282 23.6663 8.50004V19C23.6663 19.6417 23.4379 20.191 22.9809 20.648C22.524 21.1049 21.9747 21.3334 21.333 21.3334H2.66634ZM20.1663 7.33337C19.1941 7.33337 18.3677 6.9931 17.6872 6.31254C17.0066 5.63198 16.6663 4.8056 16.6663 3.83337C16.6663 2.86115 17.0066 2.03476 17.6872 1.35421C18.3677 0.673652 19.1941 0.333374 20.1663 0.333374C21.1386 0.333374 21.965 0.673652 22.6455 1.35421C23.3261 2.03476 23.6663 2.86115 23.6663 3.83337C23.6663 4.8056 23.3261 5.63198 22.6455 6.31254C21.965 6.9931 21.1386 7.33337 20.1663 7.33337ZM11.9997 10.8334L16.258 8.17921C16.5302 8.43198 16.8268 8.65073 17.1476 8.83546C17.4684 9.02018 17.8038 9.1806 18.1538 9.31671L12.6122 12.7875C12.4177 12.9042 12.2136 12.9625 11.9997 12.9625C11.7858 12.9625 11.5816 12.9042 11.3872 12.7875L2.66634 7.33337V5.00004L11.9997 10.8334Z" fill="#130D1F"/>
</svg>
