<svg width="24" height="20" viewBox="0 0 24 20" fill="none" xmlns="http://www.w3.org/2000/svg">
<path d="M7.66342 19.6396C16.4683 19.6396 21.2854 12.3375 21.2854 6.01647C21.2854 5.81114 21.2854 5.6058 21.2761 5.40047C22.2142 4.72068 23.0237 3.8792 23.6666 2.91547C22.7912 3.30226 21.8633 3.55742 20.9132 3.67264C21.9143 3.07331 22.6638 2.13103 23.0226 1.0208C22.0817 1.57901 21.0516 1.97091 19.9776 2.1793C19.5305 1.70165 18.9901 1.32088 18.3899 1.06059C17.7896 0.800308 17.1423 0.666051 16.4881 0.666138C15.2179 0.667065 14 1.17206 13.1018 2.07022C12.2037 2.96838 11.6987 4.18628 11.6978 5.45647C11.6978 5.8298 11.7444 6.1938 11.8191 6.54847C9.91496 6.45285 8.05223 5.95784 6.35183 5.09558C4.65144 4.23333 3.15139 3.0231 1.94909 1.54347C1.33808 2.59878 1.15156 3.84706 1.42739 5.03489C1.70322 6.22271 2.42073 7.26106 3.43425 7.93914C2.67484 7.91284 1.93227 7.70822 1.26659 7.3418V7.40714C1.26761 8.51232 1.6501 9.58328 2.34944 10.4391C3.04878 11.2948 4.02208 11.883 5.10492 12.1041C4.69454 12.2173 4.27061 12.2739 3.84492 12.2721C3.53575 12.2721 3.23708 12.2441 2.94658 12.1881C3.25183 13.1399 3.84727 13.9723 4.64943 14.5685C5.45159 15.1648 6.42024 15.4951 7.41959 15.5131C5.72389 16.8461 3.62881 17.5694 1.47192 17.5665C1.08925 17.5665 0.706585 17.5478 0.333252 17.5011C2.52275 18.8983 5.0661 19.6403 7.66342 19.6396Z" fill="#FFFFFF"/>
</svg>
