<svg width="49" height="42" viewBox="0 0 49 42" fill="none" xmlns="http://www.w3.org/2000/svg">
<g filter="url(#filter0_d_79_185)">
<rect x="1" y="1" width="47" height="40" rx="5" fill="white"/>
<mask id="mask0_79_185" style="mask-type:alpha" maskUnits="userSpaceOnUse" x="12" y="9" width="25" height="24">
<rect x="12.2451" y="9" width="24" height="24" fill="#D9D9D9"/>
</mask>
<g mask="url(#mask0_79_185)">
<path d="M23.6299 28.5C23.3786 28.5 23.1683 28.4153 22.9991 28.2461C22.8299 28.0769 22.7453 27.8666 22.7453 27.6153V21.8269L17.1472 14.7154C16.9549 14.459 16.927 14.1923 17.0635 13.9154C17.2001 13.6385 17.4305 13.5 17.7549 13.5H30.7356C31.0599 13.5 31.2904 13.6385 31.4269 13.9154C31.5634 14.1923 31.5355 14.459 31.3432 14.7154L25.7452 21.8269V27.6153C25.7452 27.8666 25.6606 28.0769 25.4913 28.2461C25.3221 28.4153 25.1119 28.5 24.8606 28.5H23.6299ZM24.2452 21.3L29.1952 15H19.2952L24.2452 21.3Z" fill="#555555"/>
</g>
</g>
<defs>
<filter id="filter0_d_79_185" x="0" y="0" width="49" height="42" filterUnits="userSpaceOnUse" color-interpolation-filters="sRGB">
<feFlood flood-opacity="0" result="BackgroundImageFix"/>
<feColorMatrix in="SourceAlpha" type="matrix" values="0 0 0 0 0 0 0 0 0 0 0 0 0 0 0 0 0 0 127 0" result="hardAlpha"/>
<feMorphology radius="1" operator="dilate" in="SourceAlpha" result="effect1_dropShadow_79_185"/>
<feOffset/>
<feComposite in2="hardAlpha" operator="out"/>
<feColorMatrix type="matrix" values="0 0 0 0 0 0 0 0 0 0 0 0 0 0 0 0 0 0 0.2 0"/>
<feBlend mode="normal" in2="BackgroundImageFix" result="effect1_dropShadow_79_185"/>
<feBlend mode="normal" in="SourceGraphic" in2="effect1_dropShadow_79_185" result="shape"/>
</filter>
</defs>
</svg>
