<svg width="24" height="24" viewBox="0 0 24 24" fill="none" xmlns="http://www.w3.org/2000/svg">
<path d="M17 1.99951H7C4.23858 1.99951 2 4.23809 2 6.99951V16.9995C2 19.7609 4.23858 21.9995 7 21.9995H17C19.7614 21.9995 22 19.7609 22 16.9995V6.99951C22 4.23809 19.7614 1.99951 17 1.99951Z" stroke="#202223" stroke-width="2" stroke-linecap="round" stroke-linejoin="round"/>
<path d="M16 11.3696C16.1234 12.2018 15.9812 13.0518 15.5937 13.7986C15.2062 14.5454 14.5931 15.151 13.8416 15.5292C13.0901 15.9075 12.2384 16.0392 11.4077 15.9055C10.5771 15.7718 9.80971 15.3797 9.21479 14.7847C8.61987 14.1898 8.22768 13.4224 8.09402 12.5918C7.96035 11.7611 8.09202 10.9095 8.47028 10.1579C8.84854 9.40642 9.45414 8.79331 10.2009 8.40581C10.9477 8.01831 11.7977 7.87616 12.63 7.99957C13.4789 8.12545 14.2648 8.52103 14.8716 9.12788C15.4785 9.73472 15.8741 10.5206 16 11.3696Z" stroke="#202223" stroke-width="2" stroke-linecap="round" stroke-linejoin="round"/>
<path d="M17.5 6.49951H17.51" stroke="#202223" stroke-width="2" stroke-linecap="round" stroke-linejoin="round"/>
</svg>
