<svg width="20" height="20" viewBox="0 0 20 20" fill="none" xmlns="http://www.w3.org/2000/svg">
<path d="M3 20C2.45 20 1.97917 19.8042 1.5875 19.4125C1.19583 19.0208 1 18.55 1 18V6.7C0.716667 6.51667 0.479167 6.28333 0.2875 6C0.0958333 5.71667 0 5.38333 0 5V2C0 1.45 0.195833 0.979167 0.5875 0.5875C0.979167 0.195833 1.45 0 2 0H18C18.55 0 19.0208 0.195833 19.4125 0.5875C19.8042 0.979167 20 1.45 20 2V5C20 5.38333 19.9042 5.71667 19.7125 6C19.5208 6.28333 19.2833 6.51667 19 6.7V18C19 18.55 18.8042 19.0208 18.4125 19.4125C18.0208 19.8042 17.55 20 17 20H3ZM3 7V18H17V7H3ZM18 5V2H2V5H18ZM8 12H12C12.2833 12 12.5208 11.9042 12.7125 11.7125C12.9042 11.5208 13 11.2833 13 11C13 10.7167 12.9042 10.4792 12.7125 10.2875C12.5208 10.0958 12.2833 10 12 10H8C7.71667 10 7.47917 10.0958 7.2875 10.2875C7.09583 10.4792 7 10.7167 7 11C7 11.2833 7.09583 11.5208 7.2875 11.7125C7.47917 11.9042 7.71667 12 8 12Z" fill="#555555"/>
</svg>
