<svg width="20" height="24" viewBox="0 0 20 24" fill="none" xmlns="http://www.w3.org/2000/svg">
<path d="M0.666992 20.1667V17.8334H3.00033V9.66671C3.00033 8.05282 3.48644 6.6186 4.45866 5.36404C5.43088 4.11026 6.69477 3.28893 8.25033 2.90004V2.08337C8.25033 1.59726 8.42066 1.18426 8.76132 0.844374C9.10121 0.503707 9.51421 0.333374 10.0003 0.333374C10.4864 0.333374 10.8994 0.503707 11.2393 0.844374C11.58 1.18426 11.7503 1.59726 11.7503 2.08337V2.90004C13.3059 3.28893 14.5698 4.11026 15.542 5.36404C16.5142 6.6186 17.0003 8.05282 17.0003 9.66671V17.8334H19.3337V20.1667H0.666992ZM10.0003 23.6667C9.35866 23.6667 8.80955 23.4384 8.35299 22.9819C7.89566 22.5245 7.66699 21.975 7.66699 21.3334H12.3337C12.3337 21.975 12.1054 22.5245 11.6488 22.9819C11.1915 23.4384 10.642 23.6667 10.0003 23.6667ZM5.33366 17.8334H14.667V9.66671C14.667 8.38337 14.21 7.28476 13.2962 6.37087C12.3823 5.45699 11.2837 5.00004 10.0003 5.00004C8.71699 5.00004 7.61838 5.45699 6.70449 6.37087C5.7906 7.28476 5.33366 8.38337 5.33366 9.66671V17.8334Z" fill="#130D1F"/>
</svg>
