<svg width="20" height="20" viewBox="0 0 20 20" fill="none" xmlns="http://www.w3.org/2000/svg">
<mask id="mask0_79_181" style="mask-type:alpha" maskUnits="userSpaceOnUse" x="0" y="0" width="20" height="20">
<rect width="20" height="20" fill="#D9D9D9"/>
</mask>
<g mask="url(#mask0_79_181)">
<path d="M16.2846 17.1474L11.0506 11.9135C10.634 12.2575 10.1548 12.5267 9.61315 12.7211C9.07148 12.9156 8.51112 13.0128 7.93206 13.0128C6.50776 13.0128 5.30233 12.5197 4.31577 11.5333C3.32922 10.547 2.83594 9.34192 2.83594 7.91799C2.83594 6.49405 3.32909 5.28849 4.3154 4.30131C5.3017 3.31414 6.50683 2.82056 7.93077 2.82056C9.3547 2.82056 10.5603 3.31383 11.5474 4.30039C12.5346 5.28695 13.0282 6.49238 13.0282 7.91668C13.0282 8.51177 12.9283 9.08014 12.7285 9.62181C12.5287 10.1635 12.2622 10.6346 11.9288 11.0353L17.1628 16.2692L16.2846 17.1474ZM7.93206 11.7628C9.00579 11.7628 9.91524 11.3903 10.6604 10.6451C11.4056 9.89986 11.7782 8.9904 11.7782 7.91668C11.7782 6.84296 11.4056 5.9335 10.6604 5.18831C9.91524 4.44311 9.00579 4.07052 7.93206 4.07052C6.85834 4.07052 5.94888 4.44311 5.20369 5.18831C4.45851 5.9335 4.08592 6.84296 4.08592 7.91668C4.08592 8.9904 4.45851 9.89986 5.20369 10.6451C5.94888 11.3903 6.85834 11.7628 7.93206 11.7628Z" fill="#807C86"/>
</g>
</svg>
