<svg width="28" height="28" viewBox="0 0 28 28" fill="none" xmlns="http://www.w3.org/2000/svg">
<path d="M7 2.33337L3.5 7.00004V23.3334C3.5 23.9522 3.74583 24.5457 4.18342 24.9833C4.621 25.4209 5.21449 25.6667 5.83333 25.6667H22.1667C22.7855 25.6667 23.379 25.4209 23.8166 24.9833C24.2542 24.5457 24.5 23.9522 24.5 23.3334V7.00004L21 2.33337H7Z" stroke="#202223" stroke-width="2" stroke-linecap="round" stroke-linejoin="round"/>
<path d="M3.5 7H24.5" stroke="#202223" stroke-width="2" stroke-linecap="round" stroke-linejoin="round"/>
<path d="M18.6668 11.6666C18.6668 12.9043 18.1752 14.0913 17.3 14.9665C16.4248 15.8416 15.2378 16.3333 14.0002 16.3333C12.7625 16.3333 11.5755 15.8416 10.7003 14.9665C9.82516 14.0913 9.3335 12.9043 9.3335 11.6666" stroke="#202223" stroke-width="2" stroke-linecap="round" stroke-linejoin="round"/>
</svg>
