<svg width="24" height="13" viewBox="0 0 24 13" fill="none" xmlns="http://www.w3.org/2000/svg">
<path d="M9.00351 0.161003L5.89878 8.97843H3.8733L2.34543 1.94129C2.2528 1.5089 2.1723 1.34977 1.89043 1.16694C1.42968 0.868972 0.6688 0.590306 0 0.416952L0.0451116 0.161003H3.30611C3.7211 0.161003 4.09478 0.489955 4.18982 1.05953L4.9971 6.16232L6.99016 0.161003H9.00351ZM11.7417 0.161003L10.1574 8.97843H8.24106L9.82552 0.161003H11.7417ZM16.9398 6.09957C16.9478 3.77286 14.2374 3.64373 14.2551 2.60416C14.2616 2.28811 14.5144 1.95166 15.068 1.86564C15.3422 1.82341 16.0997 1.78977 16.9578 2.26043L17.2935 0.389494C16.8325 0.190997 16.2391 0 15.5012 0C13.6068 0 12.2743 1.19781 12.2637 2.91437C12.2513 4.18408 13.2155 4.89172 13.9406 5.31463C14.6875 5.74647 14.938 6.02403 14.9345 6.40999C14.9292 7.00162 14.338 7.26353 13.7884 7.27323C12.8247 7.29143 12.266 6.96314 11.8203 6.71601L11.4725 8.64892C11.9209 8.89351 12.7471 9.10601 13.6029 9.11682C15.6168 9.11682 16.9339 7.93268 16.9398 6.09957ZM21.9419 8.97843H23.7137L22.1658 0.161003H20.5311C20.1625 0.161003 19.8526 0.415739 19.7151 0.807328L16.8399 8.97843H18.8521L19.2513 7.66129H21.7097L21.9419 8.97843ZM19.8031 5.85443L20.812 2.54318L21.3916 5.85443H19.803H19.8031ZM14.1942 11.4055H13.4156V12.2682H14.2865V12.5275H13.1532V10.1343H14.2418V10.3937H13.4156V11.1499H14.1941V11.4057L14.1942 11.4055ZM14.6888 10.0065H14.9511V12.5274H14.6888V10.0065ZM15.6131 11.725C15.619 12.1476 15.8428 12.3215 16.1081 12.3215C16.2961 12.3215 16.4124 12.2825 16.508 12.2329L16.5556 12.4566C16.4631 12.5063 16.3021 12.5666 16.0723 12.5666C15.6281 12.5666 15.3627 12.2151 15.3627 11.6966C15.3627 11.1783 15.619 10.7734 16.0396 10.7734C16.5139 10.7734 16.6362 11.2636 16.6362 11.5795C16.6362 11.6433 16.6331 11.6894 16.6271 11.7251L15.6131 11.725ZM16.3825 11.5013C16.3856 11.3061 16.314 10.9971 16.0187 10.9971C15.7502 10.9971 15.6369 11.2847 15.6159 11.5013H16.3825ZM18.0642 12.4671C17.9956 12.5063 17.8434 12.5667 17.6497 12.5667C17.2142 12.5667 16.9308 12.2151 16.9308 11.6896C16.9308 11.1604 17.2349 10.7735 17.7062 10.7735C17.8613 10.7735 17.9985 10.8195 18.0701 10.8658L18.0106 11.1037C17.9477 11.0646 17.8494 11.0218 17.7062 11.0218C17.3751 11.0218 17.1963 11.3166 17.1963 11.6719C17.1963 12.0695 17.411 12.3145 17.6974 12.3145C17.8465 12.3145 17.9449 12.2719 18.0194 12.2329L18.0642 12.4671ZM18.8004 10.397V10.8089H19.1761V11.0466H18.8004V11.9735C18.8004 12.1868 18.8512 12.3073 18.9973 12.3073C19.0688 12.3073 19.1106 12.3004 19.1494 12.2859L19.1614 12.5241C19.1106 12.5453 19.0301 12.5666 18.9287 12.5666C18.8063 12.5666 18.7079 12.5168 18.6453 12.4353C18.5737 12.3393 18.5439 12.1868 18.5439 11.9843V11.0466H18.3201V10.8089H18.5439V10.4894L18.8005 10.3971L18.8004 10.397ZM19.5427 11.3452C19.5427 11.1427 19.5395 10.9688 19.5307 10.8089H19.7604L19.7725 11.1496H19.7812C19.847 10.9191 20.0079 10.7734 20.1838 10.7734C20.2107 10.7734 20.2317 10.777 20.2556 10.7804V11.0753C20.2287 11.068 20.2019 11.068 20.1659 11.068C19.9812 11.068 19.8497 11.2314 19.8141 11.4659C19.8079 11.5141 19.8049 11.5628 19.8051 11.6115V12.5276H19.5427V11.3452ZM21.8687 11.6539C21.8687 12.2896 21.4958 12.5666 21.1499 12.5666C20.7621 12.5666 20.458 12.2256 20.458 11.6825C20.458 11.1107 20.7771 10.7735 21.1738 10.7735C21.5883 10.7735 21.8687 11.1318 21.8687 11.6539ZM20.7263 11.6718C20.7263 12.0482 20.9053 12.3323 21.1618 12.3323C21.4124 12.3323 21.6002 12.0516 21.6002 11.6646C21.6002 11.3735 21.4779 11.0076 21.1677 11.0076C20.8606 11.0076 20.7263 11.3487 20.7263 11.6718ZM22.2709 11.274C22.2709 11.0931 22.2678 10.9509 22.2589 10.809H22.4916L22.5065 11.0931H22.5124C22.584 10.9332 22.7511 10.7735 22.9897 10.7735C23.1894 10.7735 23.4997 10.9155 23.4997 11.5047V12.5275H23.2373V11.5368C23.2373 11.26 23.1508 11.029 22.9033 11.029C22.7332 11.029 22.5989 11.1747 22.5513 11.3486C22.5393 11.3877 22.5334 11.4409 22.5334 11.4943V12.5275H22.2709V11.274Z" fill="#1A1F71"/>
</svg>
